<?xml version="1.0" encoding="utf-8"?>
<!-- Svg Vector Icons : http://www.onlinewebfonts.com/icon -->
<!DOCTYPE svg PUBLIC "-//W3C//DTD SVG 1.1//EN" "http://www.w3.org/Graphics/SVG/1.1/DTD/svg11.dtd">
<svg version="1.1" xmlns="http://www.w3.org/2000/svg" xmlns:xlink="http://www.w3.org/1999/xlink" x="0px" y="0px" viewBox="0 0 1000 1000" enable-background="new 0 0 1000 1000" xml:space="preserve">
<metadata> Svg Vector Icons : http://www.onlinewebfonts.com/icon </metadata>
<g><path d="M943.9,454c-6.2,0-12.1,1.3-17.6,3.5v0l0,0c0,0,0,0,0,0L500.2,633.9L74.1,457.6c0,0,0,0-0.2,0l0,0v0c-5.4-2.3-11.3-3.5-17.5-3.5c-25.4,0-45.9,20.5-45.9,45.9c0,19.2,11.7,35.5,28.4,42.4L482.5,726c0,0,0,0,0.2,0l0,0c5.4,2.3,11.3,3.5,17.5,3.5c6.3,0,12.1-1.3,17.5-3.5l0,0c0,0,0,0,0.3,0l443.6-183.6c16.6-6.9,28.4-23.4,28.4-42.5c0-25.4-20.5-45.9-45.9-45.9L943.9,454z"/><path d="M38.4,343.3L38.4,343.3L482,526.9c0,0,0,0,0.2,0l0,0v0c5.4,2.3,11.3,3.5,17.5,3.5c6.3,0,12.1-1.3,17.5-3.5v0l0,0c0,0,0,0,0.3,0l443.6-183.6c16.6-6.9,28.4-23.3,28.4-42.4c0-19.2-11.7-35.5-28.4-42.4v0L517.6,75c0,0,0,0-0.3,0l0,0v0c-5.4-2.3-11.3-3.5-17.5-3.5c-6.2,0-12.1,1.3-17.5,3.5v0l0,0c0,0,0,0-0.2,0L38.4,258.6C21.7,265.5,10,281.8,10,300.9C10,320.1,21.7,336.5,38.4,343.3L38.4,343.3z"/><path d="M943.9,653.1c-6.2,0-12.1,1.3-17.6,3.5l0,0c0,0,0,0,0,0L500.2,832.9L74.1,656.7c0,0,0,0-0.2,0l0,0c-5.4-2.3-11.3-3.5-17.5-3.5c-25.4,0-45.9,20.5-46,45.9c0,19.2,11.7,35.5,28.4,42.4L482.4,925c0,0,0,0,0.2,0l0,0c5.4,2.3,11.3,3.5,17.5,3.5c6.3,0,12.1-1.3,17.5-3.5l0,0c0,0,0,0,0.3,0l443.6-183.6c16.7-6.9,28.4-23.3,28.4-42.4c0-25.4-20.5-45.9-45.9-45.9L943.9,653.1z"/></g>
</svg>